{"title":"Glory 21 San Diego 720p WEB-DL x264 -={SPARROW}=-","uid":11896565,"size":2313751229,"categoryP":"video","categoryS":"hd___tv_shows","magnet":"?xt=urn:btih:2a76f07cd695b30bb67acfa793d3b4da43d133de&amp;dn=Glory+21+San+Diego+720p+WEB-DL+x264+-%3D%7BSPARROW%7D%3D-&amp;tr=udp%3A%2F%2Ftracker.openbittorrent.com%3A80&amp;tr=udp%3A%2F%2Fopen.demonii.com%3A1337&amp;tr=udp%3A%2F%2Ftracker.coppersurfer.tk%3A6969&amp;tr=udp%3A%2F%2Fexodus.desync.com%3A6969","seeders":15,"leechers":1,"uploader":"CenaCme","files":2,"time":1431130013,"description":"Xavier Vigney vs Maurice Jackson (HW Tournament Semifinal 1)\nChi Lewis-Parry vs Demoreo Dennis (HW Tournament Semifinal 2)\nRaymond Daniels vs Justin Baesman\nWinner Semifinal 1 vs Winner Semifinal 2\nArtem Levin vs Simon Marcus\n\nGeneral\nComplete name                            : Glory.21.San.Diego.720p.WEB-DL.x264.mp4\nFormat                                   : MPEG-4\nFormat profile                           : Base Media\nCodec ID                                 : isom\nFile size                                : 2.15 GiB\nDuration                                 : 2h 4mn\nOverall bit rate mode                    : Constant\nOverall bit rate                         : 2 472 Kbps\nWriting application                      : Lavf56.32.100\n\nVideo\nID                                       : 1\nFormat                                   : AVC\nFormat/Info                              : Advanced Video Codec\nFormat profile                           : &lt;a class=&quot;__cf_email__&quot; href=&quot;/cdn-cgi/l/email-protection&quot; data-cfemail=&quot;92dff3fbfcd2dea1bca3&quot;&gt;[email&amp;#160;protected]&lt;/a&gt;&lt;script cf-hash='f9e31' type=&quot;text/javascript&quot;&gt;\n/* &lt;![CDATA[ */!function(){try{var t=&quot;currentScript&quot;in document?document.currentScript:function(){for(var t=document.getElementsByTagName(&quot;script&quot;),e=t.length;e--;)if(t[e].getAttribute(&quot;cf-hash&quot;))return t[e]}();if(t&amp;&amp;t.previousSibling){var e,r,n,i,c=t.previousSibling,a=c.getAttribute(&quot;data-cfemail&quot;);if(a){for(e=&quot;&quot;,r=parseInt(a.substr(0,2),16),n=2;a.length-n;n+=2)i=parseInt(a.substr(n,2),16)^r,e+=String.fromCharCode(i);e=document.createTextNode(e),c.parentNode.replaceChild(e,c)}}}catch(u){}}();/* ]]&gt; */&lt;/script&gt;\nFormat settings, CABAC                   : Yes\nFormat settings, ReFrames                : 4 frames\nCodec ID                                 : avc1\nCodec ID/Info                            : Advanced Video Coding\nDuration                                 : 2h 4mn\nBit rate mode                            : Constant\nBit rate                                 : 2 400 Kbps\nWidth                                    : 1 280 pixels\nHeight                                   : 720 pixels\nDisplay aspect ratio                     : 16:9\nFrame rate mode                          : Variable\nFrame rate                               : 29.970 fps\nMinimum frame rate                       : 29.412 fps\nMaximum frame rate                       : 30.303 fps\nColor space                              : YUV\nChroma subsampling                       : 4:2:0\nBit depth                                : 8 bits\nScan type                                : Progressive\nBits/(Pixel*Frame)                       : 0.087\nStream size                              : 2.09 GiB (97%)\n\nAudio\nID                                       : 2\nFormat                                   : AAC\nFormat/Info                              : Advanced Audio Codec\nFormat profile                           : LC\nCodec ID                                 : 40\nDuration                                 : 2h 4mn\nBit rate mode                            : Constant\nBit rate                                 : 61.4 Kbps\nChannel(s)                               : 2 channels\nChannel positions                        : Front: L R\nSampling rate                            : 48.0 KHz\nCompression mode                         : Lossy\nStream size                              : 54.8 MiB (2%)\n\n\nScreens:\n &lt;a href=&quot;\nhttp://imgsparrow.co/image/ux&quot; rel=&quot;nofollow&quot; target=&quot;_NEW&quot;&gt;\nhttp://imgsparrow.co/image/ux&lt;/a&gt;","torrent":{"xt":"urn:btih:2a76f07cd695b30bb67acfa793d3b4da43d133de","amp;dn":"Glory+21+San+Diego+720p+WEB-DL+x264+-%3D%7BSPARROW%7D%3D-","amp;tr":["udp%3A%2F%2Ftracker.openbittorrent.com%3A80","udp%3A%2F%2Fopen.demonii.com%3A1337","udp%3A%2F%2Ftracker.coppersurfer.tk%3A6969","udp%3A%2F%2Fexodus.desync.com%3A6969"],"infoHash":"2a76f07cd695b30bb67acfa793d3b4da43d133de","infoHashBuffer":{"type":"Buffer","data":[42,118,240,124,214,149,179,11,182,122,207,167,147,211,180,218,67,209,51,222]},"announce":[],"urlList":[]}}